<?xml version="1.0" standalone="no"?>
<!DOCTYPE svg PUBLIC "-//W3C//DTD SVG 20010904//EN"
 "http://www.w3.org/TR/2001/REC-SVG-20010904/DTD/svg10.dtd">
<svg version="1.0" xmlns="http://www.w3.org/2000/svg"
 width="400.000000pt" height="400.000000pt" viewBox="0 0 400.000000 400.000000"
 preserveAspectRatio="xMidYMid meet">
<metadata>
Created by potrace 1.11, written by Peter Selinger 2001-2013
</metadata>
<g transform="translate(0.000000,400.000000) scale(0.100000,-0.100000)"
fill="#000000" stroke="none">
<path d="M462 3958 c-8 -8 -12 -45 -12 -100 l0 -88 -49 0 c-64 0 -81 -7 -81
-35 0 -27 16 -34 78 -37 45 -1 45 -2 -13 -7 -49 -5 -61 -10 -63 -25 -6 -28 25
-46 80 -46 l48 0 0 -95 0 -94 -62 -3 c-51 -2 -63 -6 -66 -21 -2 -10 4 -27 13
-37 15 -16 15 -18 0 -24 -10 -3 -15 -15 -13 -28 3 -21 9 -23 66 -26 l62 -3 0
-99 0 -99 -62 -3 c-57 -3 -63 -5 -66 -26 -2 -13 3 -25 13 -28 15 -6 15 -8 0
-24 -9 -10 -15 -27 -13 -37 3 -15 15 -19 66 -21 l63 -3 -3 -97 -3 -97 -60 -5
c-49 -4 -60 -8 -63 -24 -3 -11 3 -25 13 -32 15 -11 15 -13 0 -22 -10 -5 -15
-18 -13 -33 3 -22 8 -24 66 -27 l62 -3 0 -94 0 -95 -48 0 c-55 0 -86 -18 -80
-46 3 -16 14 -20 68 -25 l65 -6 -63 -1 c-48 -2 -64 -6 -69 -18 -12 -32 11 -49
71 -52 l56 -3 0 -94 0 -95 -54 0 c-57 0 -80 -15 -74 -47 2 -14 16 -19 63 -24
l60 -5 -60 -5 c-48 -3 -61 -8 -63 -22 -6 -32 17 -47 74 -47 l54 0 0 -95 0 -95
-49 0 c-64 0 -81 -7 -81 -35 0 -27 16 -34 78 -37 45 -1 45 -2 -13 -7 -49 -5
-61 -10 -63 -25 -6 -28 25 -46 80 -46 l48 0 0 -95 0 -95 -60 0 c-47 0 -62 -4
-67 -16 -12 -31 11 -49 68 -53 l54 -5 -60 -5 c-56 -6 -60 -8 -60 -31 0 -24 3
-25 63 -28 l62 -3 0 -99 0 -99 -62 -3 c-51 -2 -63 -6 -66 -21 -2 -10 4 -27 13
-37 15 -16 15 -18 0 -24 -10 -3 -15 -15 -13 -28 3 -21 9 -23 66 -26 l63 -3 -3
-97 -3 -97 -60 -5 c-53 -4 -60 -8 -63 -28 -2 -13 3 -25 13 -28 15 -6 15 -8 0
-24 -9 -10 -15 -27 -13 -37 3 -15 15 -19 66 -21 l63 -3 -3 -97 -3 -97 -60 -5
c-53 -4 -60 -8 -63 -28 -2 -16 3 -25 20 -31 l23 -8 -23 -7 c-14 -5 -22 -15
-22 -31 0 -28 16 -35 80 -35 l49 0 3 -72 c3 -64 6 -74 26 -84 13 -6 30 -21 38
-33 l15 -21 1538 0 c1477 0 1539 1 1554 18 16 17 17 165 17 1930 0 1724 -2
1912 -16 1926 -8 9 -22 16 -30 16 -8 0 -14 7 -14 15 0 8 -9 19 -19 25 -30 16
-3083 14 -3099 -2z m3093 -1933 l0 -1920 -1540 0 -1540 0 -3 67 -3 68 53 0
c31 -1 61 -7 72 -15 11 -8 37 -15 59 -15 87 0 133 112 70 172 -38 36 -75 44
-114 24 -18 -9 -56 -16 -86 -16 l-53 0 0 95 0 95 53 0 c30 -1 60 -7 71 -15 34
-26 94 -19 127 14 63 64 20 174 -69 174 -25 0 -50 -7 -60 -17 -12 -10 -36 -16
-70 -16 l-52 0 0 100 0 100 53 0 c30 -1 60 -7 71 -15 11 -8 37 -15 59 -15 88
0 131 108 68 171 -33 33 -93 40 -127 14 -11 -8 -41 -14 -71 -15 l-53 0 0 95 0
95 53 0 c30 0 68 -7 86 -16 99 -49 191 88 112 167 -33 33 -93 40 -127 14 -11
-8 -41 -14 -71 -15 l-53 0 0 95 0 95 53 0 c30 0 68 -7 86 -16 39 -20 76 -12
114 24 21 20 27 35 27 68 0 81 -77 127 -151 90 -17 -9 -54 -16 -81 -16 l-48 0
0 96 0 96 58 -4 c31 -3 71 -11 88 -18 66 -28 134 21 134 97 0 74 -68 121 -134
93 -17 -7 -57 -15 -88 -18 l-58 -4 0 97 0 97 58 -4 c31 -3 71 -11 88 -18 66
-28 134 19 134 93 0 34 -6 50 -26 70 -34 35 -83 43 -122 23 -17 -9 -54 -16
-82 -16 l-50 0 0 95 0 95 53 0 c30 -1 60 -7 71 -15 11 -8 37 -15 59 -15 87 0
133 112 70 172 -38 36 -75 44 -114 24 -18 -9 -56 -16 -86 -16 l-53 0 0 95 0
95 53 0 c30 -1 60 -7 71 -15 34 -26 94 -19 127 14 63 64 20 174 -69 174 -25 0
-50 -7 -60 -17 -12 -10 -36 -16 -70 -16 l-52 0 0 100 0 100 47 0 c27 0 65 -9
89 -20 39 -19 45 -20 77 -7 72 31 91 114 38 168 -33 33 -93 40 -127 14 -11 -8
-41 -14 -71 -15 l-53 0 0 95 0 95 53 0 c30 0 68 -7 86 -16 99 -49 191 88 112
167 -33 33 -93 40 -127 14 -11 -8 -41 -14 -71 -15 l-53 0 0 83 c0 46 3 87 7
90 3 4 698 6 1542 5 l1536 -3 0 -1920z m53 -47 l-3 -1923 -1534 0 c-1219 0
-1535 3 -1539 13 -3 9 304 12 1510 12 1164 0 1517 3 1526 12 9 9 12 447 12
1910 0 1682 2 1898 15 1898 13 0 15 -218 13 -1922z m-2978 1757 c0 -16 -282
-13 -288 3 -3 10 27 12 142 10 89 -2 146 -7 146 -13z m10 -75 c0 -6 -57 -10
-150 -10 -93 0 -150 4 -150 10 0 6 57 10 150 10 93 0 150 -4 150 -10z m0 -260
c0 -6 -57 -10 -150 -10 -93 0 -150 4 -150 10 0 6 57 10 150 10 93 0 150 -4
150 -10z m0 -80 c0 -6 -57 -10 -150 -10 -93 0 -150 4 -150 10 0 6 57 10 150
10 93 0 150 -4 150 -10z m0 -260 c0 -6 -57 -10 -150 -10 -93 0 -150 4 -150 10
0 6 57 10 150 10 93 0 150 -4 150 -10z m-5 -80 c-4 -6 -65 -10 -151 -10 -89 0
-144 4 -144 10 0 6 57 10 151 10 97 0 148 -4 144 -10z m5 -260 c0 -6 -57 -10
-150 -10 -93 0 -150 4 -150 10 0 6 57 10 150 10 93 0 150 -4 150 -10z m-7 -75
c-4 -12 -293 -19 -293 -7 0 5 3 12 7 16 11 11 288 2 286 -9z m7 -265 c0 -6
-57 -10 -150 -10 -93 0 -150 4 -150 10 0 6 57 10 150 10 93 0 150 -4 150 -10z
m-112 -37 c-10 -2 -28 -2 -40 0 -13 2 -5 4 17 4 22 1 32 -1 23 -4z m102 -38
c0 -16 -282 -13 -288 3 -3 10 27 12 142 10 89 -2 146 -7 146 -13z m5 -265 c-4
-6 -65 -10 -151 -10 -89 0 -144 4 -144 10 0 6 57 10 151 10 97 0 148 -4 144
-10z m5 -70 c0 -6 -57 -10 -150 -10 -93 0 -150 4 -150 10 0 6 57 10 150 10 93
0 150 -4 150 -10z m-7 -265 c-4 -12 -293 -19 -293 -7 0 5 3 12 7 16 11 11 288
2 286 -9z m-105 -42 c-10 -2 -28 -2 -40 0 -13 2 -5 4 17 4 22 1 32 -1 23 -4z
m112 -33 c0 -6 -57 -10 -150 -10 -93 0 -150 4 -150 10 0 6 57 10 150 10 93 0
150 -4 150 -10z m-10 -265 c0 -16 -282 -13 -288 3 -3 10 27 12 142 10 89 -2
146 -7 146 -13z m10 -75 c0 -6 -57 -10 -150 -10 -93 0 -150 4 -150 10 0 6 57
10 150 10 93 0 150 -4 150 -10z m0 -260 c0 -6 -57 -10 -150 -10 -93 0 -150 4
-150 10 0 6 57 10 150 10 93 0 150 -4 150 -10z m0 -80 c0 -6 -57 -10 -150 -10
-93 0 -150 4 -150 10 0 6 57 10 150 10 93 0 150 -4 150 -10z m0 -260 c0 -6
-57 -10 -150 -10 -93 0 -150 4 -150 10 0 6 57 10 150 10 93 0 150 -4 150 -10z
m-5 -80 c-4 -6 -65 -10 -151 -10 -89 0 -144 4 -144 10 0 6 57 10 151 10 97 0
148 -4 144 -10z m5 -260 c0 -6 -57 -10 -150 -10 -93 0 -150 4 -150 10 0 6 57
10 150 10 93 0 150 -4 150 -10z m-7 -75 c-4 -12 -293 -19 -293 -7 0 5 3 12 7
16 11 11 288 2 286 -9z"/>
<path d="M1030 2900 l0 -99 145 -3 146 -3 -166 -239 -165 -240 0 -93 0 -93
285 0 285 0 0 100 0 100 -171 2 -170 3 165 240 166 240 0 93 0 92 -260 0 -260
0 0 -100z"/>
<path d="M1790 2565 l0 -435 90 0 90 0 0 435 0 435 -90 0 -90 0 0 -435z"/>
<path d="M2240 2565 l0 -435 85 0 85 0 2 237 3 238 111 -235 111 -235 86 -3
87 -3 0 436 0 435 -85 0 -85 0 0 -237 c0 -145 -4 -233 -9 -227 -5 5 -58 111
-117 237 l-107 227 -83 0 -84 0 0 -435z"/>
<path d="M3080 2565 l0 -435 90 0 90 0 0 435 0 435 -90 0 -90 0 0 -435z"/>
</g>
</svg>
